<svg xmlns="http://www.w3.org/2000/svg" viewBox="0 0 220.2 83.97"><title>tgdtsm-logo</title><path d="M0,.6H19.8V4.3H12V25.1H7.7V4.3H-.1V.6Z" transform="translate(0.1 0)" style="fill:#fff"/><path d="M21.3.6h3.9V9.7h.1a6.29,6.29,0,0,1,5.3-2.8c3.8,0,6.3,2.1,6.3,6V25.1H33V14c-.1-2.8-1.2-4-3.5-4-2.6,0-4.3,2.1-4.3,4.7V25.2H21.3Z" transform="translate(0.1 0)" style="fill:#fff"/><path d="M42.6,17.2c0,2.8,1.5,5.2,4.8,5.2a4.09,4.09,0,0,0,4.3-2.9h3.7c-.9,3.9-4.2,6-8,6-5.6,0-8.7-3.9-8.7-9.3,0-5,3.3-9.4,8.6-9.4,5.6,0,9,5,8.4,10.4Zm9.2-2.6a4.59,4.59,0,0,0-4.5-4.7,4.69,4.69,0,0,0-4.7,4.7Z" transform="translate(0.1 0)" style="fill:#fff"/><path d="M85.5,25H82.8l-.7-2.9a8.91,8.91,0,0,1-7.4,3.5C67.4,25.6,63,19.8,63,12.8S67.4,0,74.7,0c5.4,0,9.8,2.8,10.5,8.4H81c-.4-3.2-3.2-4.9-6.3-4.9-5.2,0-7.4,4.6-7.4,9.3s2.2,9.3,7.4,9.3c4.4.1,6.8-2.6,6.9-6.7H75.1V12.1H85.5V25Z" transform="translate(0.1 0)" style="fill:#fff"/><path d="M103.1,21.1c0,1,.2,1.3.9,1.3a4.59,4.59,0,0,0,1-.1V25a10.05,10.05,0,0,1-2.5.4c-1.6,0-2.7-.6-3-2.2a9,9,0,0,1-6.1,2.2c-3.2,0-6.1-1.7-6.1-5.2,0-4.4,3.5-5.1,6.8-5.5,2.8-.5,5.3-.2,5.3-2.5,0-2-2.1-2.4-3.7-2.4-2.2,0-3.7.9-3.9,2.8H87.9C88.2,8,92,6.7,96,6.7c3.5,0,7.1,1.4,7.1,5.1v9.3Zm-3.9-4.9c-1.2.8-3.1.8-4.8,1.1s-3.2.9-3.2,3c0,1.7,2.2,2.3,3.6,2.3,1.7,0,4.4-.9,4.4-3.4v-3Z" transform="translate(0.1 0)" style="fill:#fff"/><path d="M106.4,7.3h3.7v3.4h.1a5.68,5.68,0,0,1,5.2-3.9c.9,0,1.1.1,1.5.1v3.8a9.85,9.85,0,0,0-1.7-.2c-2.7,0-4.8,2.2-4.8,6.1V25h-3.9V7.3Z" transform="translate(0.1 0)" style="fill:#fff"/><path d="M132.5,21.1c0,1,.2,1.3.9,1.3a4.14,4.14,0,0,0,1-.1V25a10.05,10.05,0,0,1-2.5.4c-1.6,0-2.7-.6-3-2.2a9,9,0,0,1-6.1,2.2c-3.2,0-6.1-1.7-6.1-5.2,0-4.4,3.5-5.1,6.8-5.5,2.8-.5,5.3-.2,5.3-2.5,0-2-2.1-2.4-3.7-2.4-2.2,0-3.7.9-3.9,2.8h-3.9c.3-4.6,4.1-5.9,8.1-5.9,3.5,0,7.1,1.4,7.1,5.1v9.3Zm-3.9-4.9c-1.2.8-3.1.8-4.8,1.1s-3.2.9-3.2,3c0,1.7,2.2,2.3,3.6,2.3,1.7,0,4.4-.9,4.4-3.4v-3Z" transform="translate(0.1 0)" style="fill:#fff"/><path d="M152.2,24.1c0,5.3-3.1,8-8.7,8-3.6,0-7.6-1.4-7.9-5.5h3.9c.5,2.2,2.3,2.6,4.2,2.6,3.2,0,4.6-1.6,4.6-4.5V22h-.1a5.94,5.94,0,0,1-5.3,3.1c-5.6,0-8-4.2-8-9.3,0-4.8,3-8.9,8-8.9a5.51,5.51,0,0,1,5.2,2.9h.1V7.4h3.9l.1,16.7Zm-3.9-8.3c0-3.1-1.4-5.9-4.8-5.9s-4.7,3.2-4.7,6.2,1.4,5.9,4.7,5.9C147,22,148.3,18.8,148.3,15.8Z" transform="translate(0.1 0)" style="fill:#fff"/><path d="M158.4,17.2c0,2.8,1.5,5.2,4.8,5.2a4.09,4.09,0,0,0,4.3-2.9h3.7c-.9,3.9-4.1,6-8,6-5.6,0-8.7-3.9-8.7-9.3,0-5,3.3-9.4,8.6-9.4,5.6,0,9,5,8.4,10.4Zm9.1-2.6A4.59,4.59,0,0,0,163,9.9a4.69,4.69,0,0,0-4.7,4.7Z" transform="translate(0.1 0)" style="fill:#fff"/><path d="M3.5,31.2H13.7c7.5,0,10.8,5.5,10.8,12.2S21.2,55.6,13.7,55.6H3.5Zm4.3,21H12c6.7,0,8.2-3.8,8.2-8.7s-1.4-8.7-8.2-8.7H7.8Z" transform="translate(0.1 0)" style="fill:#fff"/><path d="M26,46.8c0-5.4,3.3-9.3,9-9.3s8.9,3.9,8.9,9.3-3.3,9.4-8.9,9.4S26,52.3,26,46.8Zm14,0c0-3.1-1.5-6.2-5-6.2s-5,3.2-5,6.2,1.5,6.3,5,6.3S40,49.9,40,46.8Z" transform="translate(0.1 0)" style="fill:#fff"/><path d="M45.5,46.8c0-5.4,3.3-9.3,9-9.3s8.9,3.9,8.9,9.3-3.3,9.4-8.9,9.4S45.5,52.3,45.5,46.8Zm14,0c0-3.1-1.5-6.2-5-6.2s-5,3.2-5,6.2,1.5,6.3,5,6.3S59.5,49.9,59.5,46.8Z" transform="translate(0.1 0)" style="fill:#fff"/><path d="M65.8,38h3.7v3.4h.1a5.68,5.68,0,0,1,5.2-3.9c.9,0,1.1.1,1.5.1v3.8a8.81,8.81,0,0,0-1.7-.2c-2.7,0-4.8,2.2-4.8,6.1v8.4H65.9V38Z" transform="translate(0.1 0)" style="fill:#fff"/><path d="M77.7,31.2H97.5v3.7H89.7V55.7H85.4V34.9H77.6l.1-3.7Z" transform="translate(0.1 0)" style="fill:#fff"/><path d="M97.7,47.9c0,2.8,1.5,5.2,4.8,5.2a4.09,4.09,0,0,0,4.3-2.9h3.7c-.9,3.9-4.1,6-8,6-5.6,0-8.7-3.9-8.7-9.3,0-5,3.3-9.4,8.6-9.4,5.6,0,9,5,8.4,10.4Zm9.1-2.6a4.59,4.59,0,0,0-4.5-4.7,4.69,4.69,0,0,0-4.7,4.7Z" transform="translate(0.1 0)" style="fill:#fff"/><path d="M127.7,51.8c0,1,.2,1.3.9,1.3a4.14,4.14,0,0,0,1-.1v2.7a10.05,10.05,0,0,1-2.5.4c-1.6,0-2.7-.5-3-2.2a9,9,0,0,1-6.1,2.2c-3.2,0-6.1-1.7-6.1-5.2,0-4.4,3.5-5.1,6.8-5.5,2.8-.5,5.3-.2,5.3-2.5,0-2-2.1-2.4-3.7-2.4-2.2,0-3.7.9-3.9,2.8h-3.9c.3-4.6,4.1-5.9,8.1-5.9,3.5,0,7.1,1.4,7.1,5.1Zm-3.9-5c-1.2.8-3.1.8-4.8,1.1s-3.2.9-3.2,2.9c0,1.7,2.2,2.3,3.6,2.3,1.7,0,4.4-.9,4.4-3.4Z" transform="translate(0.1 0)" style="fill:#fff"/><path d="M131,38h3.7v2.5h.1a5.89,5.89,0,0,1,5.5-3c2.2,0,4.2.9,5,3a6.52,6.52,0,0,1,5.6-3c3.7,0,5.9,1.6,5.9,6V55.7h-3.9V45.3c0-2.8-.2-4.8-3.2-4.8-2.6,0-3.8,1.7-3.8,4.7V55.6H142V44.2c0-2.4-.8-3.7-3.1-3.7-2,0-3.9,1.6-3.9,4.6V55.6h-3.9L131,38Z" transform="translate(0.1 0)" style="fill:#fff"/><polygon points="166.9 55.7 196.5 55.7 220.2 0.6 190.6 0.7 166.9 55.7" style="fill:#ef4044"/><text transform="translate(0.1 78.74)" style="font-size:20.045759201049805px;fill:#fff;font-family:Lato-Thin, Lato"><tspan style="letter-spacing:-0.005992149576141243em">S</tspan><tspan x="10.53" y="0">outh </tspan><tspan x="55.8" y="0" style="letter-spacing:-0.018487973692240662em">M</tspan><tspan x="73.43" y="0">anches</tspan><tspan x="133.1" y="0" style="letter-spacing:-0.0004871666322066051em">t</tspan><tspan x="139.79" y="0" style="letter-spacing:-0.00004871666322066051em">e</tspan><tspan x="150.17" y="0" style="letter-spacing:-0.02197121511251789em">r</tspan></text></svg>