<svg xmlns="http://www.w3.org/2000/svg" viewBox="0 0 220.2 78.9"><title>tgdtsm-logo</title><path d="M0,.6H19.8V4.3H12V25.1H7.7V4.3H-.1V.6Z" transform="translate(0.1 0)" style="fill:#fff"/><path d="M21.3.6h3.9V9.7h.1a6.29,6.29,0,0,1,5.3-2.8c3.8,0,6.3,2.1,6.3,6V25.1H33V14c-.1-2.8-1.2-4-3.5-4-2.6,0-4.3,2.1-4.3,4.7V25.2H21.3Z" transform="translate(0.1 0)" style="fill:#fff"/><path d="M42.6,17.2c0,2.8,1.5,5.2,4.8,5.2a4.09,4.09,0,0,0,4.3-2.9h3.7c-.9,3.9-4.2,6-8,6-5.6,0-8.7-3.9-8.7-9.3,0-5,3.3-9.4,8.6-9.4,5.6,0,9,5,8.4,10.4Zm9.2-2.6a4.59,4.59,0,0,0-4.5-4.7,4.69,4.69,0,0,0-4.7,4.7Z" transform="translate(0.1 0)" style="fill:#fff"/><path d="M85.5,25H82.8l-.7-2.9a8.91,8.91,0,0,1-7.4,3.5C67.4,25.6,63,19.8,63,12.8S67.4,0,74.7,0c5.4,0,9.8,2.8,10.5,8.4H81c-.4-3.2-3.2-4.9-6.3-4.9-5.2,0-7.4,4.6-7.4,9.3s2.2,9.3,7.4,9.3c4.4.1,6.8-2.6,6.9-6.7H75.1V12.1H85.5V25Z" transform="translate(0.1 0)" style="fill:#fff"/><path d="M103.1,21.1c0,1,.2,1.3.9,1.3a4.59,4.59,0,0,0,1-.1V25a10.05,10.05,0,0,1-2.5.4c-1.6,0-2.7-.6-3-2.2a9,9,0,0,1-6.1,2.2c-3.2,0-6.1-1.7-6.1-5.2,0-4.4,3.5-5.1,6.8-5.5,2.8-.5,5.3-.2,5.3-2.5,0-2-2.1-2.4-3.7-2.4-2.2,0-3.7.9-3.9,2.8H87.9C88.2,8,92,6.7,96,6.7c3.5,0,7.1,1.4,7.1,5.1v9.3Zm-3.9-4.9c-1.2.8-3.1.8-4.8,1.1s-3.2.9-3.2,3c0,1.7,2.2,2.3,3.6,2.3,1.7,0,4.4-.9,4.4-3.4v-3Z" transform="translate(0.1 0)" style="fill:#fff"/><path d="M106.4,7.3h3.7v3.4h.1a5.68,5.68,0,0,1,5.2-3.9c.9,0,1.1.1,1.5.1v3.8a9.85,9.85,0,0,0-1.7-.2c-2.7,0-4.8,2.2-4.8,6.1V25h-3.9V7.3Z" transform="translate(0.1 0)" style="fill:#fff"/><path d="M132.5,21.1c0,1,.2,1.3.9,1.3a4.14,4.14,0,0,0,1-.1V25a10.05,10.05,0,0,1-2.5.4c-1.6,0-2.7-.6-3-2.2a9,9,0,0,1-6.1,2.2c-3.2,0-6.1-1.7-6.1-5.2,0-4.4,3.5-5.1,6.8-5.5,2.8-.5,5.3-.2,5.3-2.5,0-2-2.1-2.4-3.7-2.4-2.2,0-3.7.9-3.9,2.8h-3.9c.3-4.6,4.1-5.9,8.1-5.9,3.5,0,7.1,1.4,7.1,5.1v9.3Zm-3.9-4.9c-1.2.8-3.1.8-4.8,1.1s-3.2.9-3.2,3c0,1.7,2.2,2.3,3.6,2.3,1.7,0,4.4-.9,4.4-3.4v-3Z" transform="translate(0.1 0)" style="fill:#fff"/><path d="M152.2,24.1c0,5.3-3.1,8-8.7,8-3.6,0-7.6-1.4-7.9-5.5h3.9c.5,2.2,2.3,2.6,4.2,2.6,3.2,0,4.6-1.6,4.6-4.5V22h-.1a5.94,5.94,0,0,1-5.3,3.1c-5.6,0-8-4.2-8-9.3,0-4.8,3-8.9,8-8.9a5.51,5.51,0,0,1,5.2,2.9h.1V7.4h3.9l.1,16.7Zm-3.9-8.3c0-3.1-1.4-5.9-4.8-5.9s-4.7,3.2-4.7,6.2,1.4,5.9,4.7,5.9C147,22,148.3,18.8,148.3,15.8Z" transform="translate(0.1 0)" style="fill:#fff"/><path d="M158.4,17.2c0,2.8,1.5,5.2,4.8,5.2a4.09,4.09,0,0,0,4.3-2.9h3.7c-.9,3.9-4.1,6-8,6-5.6,0-8.7-3.9-8.7-9.3,0-5,3.3-9.4,8.6-9.4,5.6,0,9,5,8.4,10.4Zm9.1-2.6A4.59,4.59,0,0,0,163,9.9a4.69,4.69,0,0,0-4.7,4.7Z" transform="translate(0.1 0)" style="fill:#fff"/><path d="M3.5,31.2H13.7c7.5,0,10.8,5.5,10.8,12.2S21.2,55.6,13.7,55.6H3.5Zm4.3,21H12c6.7,0,8.2-3.8,8.2-8.7s-1.4-8.7-8.2-8.7H7.8Z" transform="translate(0.1 0)" style="fill:#fff"/><path d="M26,46.8c0-5.4,3.3-9.3,9-9.3s8.9,3.9,8.9,9.3-3.3,9.4-8.9,9.4S26,52.3,26,46.8Zm14,0c0-3.1-1.5-6.2-5-6.2s-5,3.2-5,6.2,1.5,6.3,5,6.3S40,49.9,40,46.8Z" transform="translate(0.1 0)" style="fill:#fff"/><path d="M45.5,46.8c0-5.4,3.3-9.3,9-9.3s8.9,3.9,8.9,9.3-3.3,9.4-8.9,9.4S45.5,52.3,45.5,46.8Zm14,0c0-3.1-1.5-6.2-5-6.2s-5,3.2-5,6.2,1.5,6.3,5,6.3S59.5,49.9,59.5,46.8Z" transform="translate(0.1 0)" style="fill:#fff"/><path d="M65.8,38h3.7v3.4h.1a5.68,5.68,0,0,1,5.2-3.9c.9,0,1.1.1,1.5.1v3.8a8.81,8.81,0,0,0-1.7-.2c-2.7,0-4.8,2.2-4.8,6.1v8.4H65.9V38Z" transform="translate(0.1 0)" style="fill:#fff"/><path d="M77.7,31.2H97.5v3.7H89.7V55.7H85.4V34.9H77.6l.1-3.7Z" transform="translate(0.1 0)" style="fill:#fff"/><path d="M97.7,47.9c0,2.8,1.5,5.2,4.8,5.2a4.09,4.09,0,0,0,4.3-2.9h3.7c-.9,3.9-4.1,6-8,6-5.6,0-8.7-3.9-8.7-9.3,0-5,3.3-9.4,8.6-9.4,5.6,0,9,5,8.4,10.4Zm9.1-2.6a4.59,4.59,0,0,0-4.5-4.7,4.69,4.69,0,0,0-4.7,4.7Z" transform="translate(0.1 0)" style="fill:#fff"/><path d="M127.7,51.8c0,1,.2,1.3.9,1.3a4.14,4.14,0,0,0,1-.1v2.7a10.05,10.05,0,0,1-2.5.4c-1.6,0-2.7-.5-3-2.2a9,9,0,0,1-6.1,2.2c-3.2,0-6.1-1.7-6.1-5.2,0-4.4,3.5-5.1,6.8-5.5,2.8-.5,5.3-.2,5.3-2.5,0-2-2.1-2.4-3.7-2.4-2.2,0-3.7.9-3.9,2.8h-3.9c.3-4.6,4.1-5.9,8.1-5.9,3.5,0,7.1,1.4,7.1,5.1Zm-3.9-5c-1.2.8-3.1.8-4.8,1.1s-3.2.9-3.2,2.9c0,1.7,2.2,2.3,3.6,2.3,1.7,0,4.4-.9,4.4-3.4Z" transform="translate(0.1 0)" style="fill:#fff"/><path d="M131,38h3.7v2.5h.1a5.89,5.89,0,0,1,5.5-3c2.2,0,4.2.9,5,3a6.52,6.52,0,0,1,5.6-3c3.7,0,5.9,1.6,5.9,6V55.7h-3.9V45.3c0-2.8-.2-4.8-3.2-4.8-2.6,0-3.8,1.7-3.8,4.7V55.6H142V44.2c0-2.4-.8-3.7-3.1-3.7-2,0-3.9,1.6-3.9,4.6V55.6h-3.9L131,38Z" transform="translate(0.1 0)" style="fill:#fff"/><polygon points="166.9 55.7 196.5 55.7 220.2 0.6 190.6 0.7 166.9 55.7" style="fill:#ef4044"/><path d="M9,66.28a.29.29,0,0,1-.26.17.56.56,0,0,1-.34-.19,4.35,4.35,0,0,0-.55-.41A4.26,4.26,0,0,0,7,65.44a3.76,3.76,0,0,0-1.3-.19,3.84,3.84,0,0,0-1.36.22,3,3,0,0,0-1,.6,2.65,2.65,0,0,0-.6.88,2.72,2.72,0,0,0-.2,1,2.2,2.2,0,0,0,.3,1.2,2.81,2.81,0,0,0,.81.8,5,5,0,0,0,1.14.55c.42.16.86.3,1.3.45s.89.31,1.31.49a4.54,4.54,0,0,1,1.14.66,3.26,3.26,0,0,1,.81,1,3.19,3.19,0,0,1,.3,1.46,4.72,4.72,0,0,1-.3,1.68,4.05,4.05,0,0,1-.89,1.37A4.23,4.23,0,0,1,7,78.56a5.11,5.11,0,0,1-1.93.34,5.42,5.42,0,0,1-2.41-.5A5.6,5.6,0,0,1,.89,77l.28-.44a.36.36,0,0,1,.28-.15.39.39,0,0,1,.23.12l.34.3c.14.12.3.24.49.38a3.59,3.59,0,0,0,.65.38,4.21,4.21,0,0,0,.85.3,4.49,4.49,0,0,0,1.09.12,4.14,4.14,0,0,0,1.5-.26,3.1,3.1,0,0,0,1.12-.7,2.85,2.85,0,0,0,.7-1,3.53,3.53,0,0,0,.24-1.3,2.26,2.26,0,0,0-.31-1.24,2.68,2.68,0,0,0-.8-.81,5.48,5.48,0,0,0-1.14-.55L5.1,71.72c-.45-.14-.88-.3-1.31-.47a4.12,4.12,0,0,1-1.13-.67,2.88,2.88,0,0,1-.81-1,3.39,3.39,0,0,1-.31-1.52,3.6,3.6,0,0,1,.27-1.37,3.44,3.44,0,0,1,.8-1.17,4,4,0,0,1,1.28-.81,4.83,4.83,0,0,1,1.75-.3,5.14,5.14,0,0,1,2,.35,4.64,4.64,0,0,1,1.6,1.07Z" transform="translate(0.1 0)" style="fill:#fff"/><path d="M16.22,68.61a4.9,4.9,0,0,1,1.92.36,3.8,3.8,0,0,1,1.42,1,4.54,4.54,0,0,1,.89,1.62,7.37,7.37,0,0,1,0,4.23,4.54,4.54,0,0,1-.89,1.62,3.88,3.88,0,0,1-1.42,1,4.9,4.9,0,0,1-1.92.36,4.83,4.83,0,0,1-1.92-.36,4,4,0,0,1-1.44-1A4.7,4.7,0,0,1,12,75.86a7.61,7.61,0,0,1,0-4.23A4.7,4.7,0,0,1,12.86,70a3.87,3.87,0,0,1,1.44-1A4.83,4.83,0,0,1,16.22,68.61Zm0,9.51a3.81,3.81,0,0,0,1.56-.31,2.88,2.88,0,0,0,1.11-.88,3.72,3.72,0,0,0,.66-1.37,7.56,7.56,0,0,0,0-3.62,3.81,3.81,0,0,0-.66-1.39,3.08,3.08,0,0,0-1.11-.88,3.65,3.65,0,0,0-1.56-.31,3.59,3.59,0,0,0-1.56.31,2.92,2.92,0,0,0-1.11.88,4,4,0,0,0-.68,1.39,7.56,7.56,0,0,0,0,3.62,3.91,3.91,0,0,0,.68,1.37,2.74,2.74,0,0,0,1.11.88A3.74,3.74,0,0,0,16.22,78.12Z" transform="translate(0.1 0)" style="fill:#fff"/><path d="M31.19,68.77v10h-.53a.27.27,0,0,1-.29-.26L30.28,77a5.55,5.55,0,0,1-1.6,1.39,4,4,0,0,1-2,.52,3.79,3.79,0,0,1-1.45-.26,2.84,2.84,0,0,1-1-.75,3.36,3.36,0,0,1-.62-1.19,5.35,5.35,0,0,1-.21-1.56V68.77h1v6.37a3.39,3.39,0,0,0,.64,2.2,2.35,2.35,0,0,0,1.95.8,3.54,3.54,0,0,0,1.82-.5,5,5,0,0,0,1.51-1.38V68.77Z" transform="translate(0.1 0)" style="fill:#fff"/><path d="M37.19,78.9a2.14,2.14,0,0,1-1.57-.56,2.37,2.37,0,0,1-.57-1.74V69.79H33.62a.24.24,0,0,1-.18-.06.21.21,0,0,1-.07-.17v-.37l1.7-.12.24-3.57a.3.3,0,0,1,.08-.16.21.21,0,0,1,.17-.07H36v3.81h3.15v.71H36v6.76a2.12,2.12,0,0,0,.11.71,1.25,1.25,0,0,0,.29.49,1.23,1.23,0,0,0,.43.28,1.63,1.63,0,0,0,.55.09A1.67,1.67,0,0,0,38,78a2.69,2.69,0,0,0,.76-.46.32.32,0,0,1,.19-.1.21.21,0,0,1,.16.1l.26.42a2.75,2.75,0,0,1-1,.67A3,3,0,0,1,37.19,78.9Z" transform="translate(0.1 0)" style="fill:#fff"/><path d="M42.3,70.45a5.43,5.43,0,0,1,1.58-1.34,3.89,3.89,0,0,1,2-.5,3.61,3.61,0,0,1,1.45.26,2.56,2.56,0,0,1,1,.75A3.4,3.4,0,0,1,49,70.8a5.35,5.35,0,0,1,.21,1.56v6.38h-1V72.36a3.43,3.43,0,0,0-.64-2.2,2.37,2.37,0,0,0-2-.79,3.58,3.58,0,0,0-1.82.49,5.13,5.13,0,0,0-1.5,1.38v7.5h-1V64.16h1Z" transform="translate(0.1 0)" style="fill:#fff"/><path d="M72.26,64.56V78.74h-.89V66.65a5.36,5.36,0,0,1,0-.55L65.82,76a.43.43,0,0,1-.4.26h-.16a.42.42,0,0,1-.4-.26l-5.74-9.93q0,.3,0,.57V78.74h-.9V64.56H59a.61.61,0,0,1,.22,0,.36.36,0,0,1,.17.16l5.72,9.86a5.42,5.42,0,0,1,.26.6c0-.11.08-.21.13-.32l.15-.29,5.56-9.85a.36.36,0,0,1,.17-.16.65.65,0,0,1,.22,0Z" transform="translate(0.1 0)" style="fill:#fff"/><path d="M75.37,70.18A5.61,5.61,0,0,1,77,69a4.5,4.5,0,0,1,2-.41,3.57,3.57,0,0,1,1.4.26,2.55,2.55,0,0,1,1,.73,3.35,3.35,0,0,1,.6,1.16,5.39,5.39,0,0,1,.2,1.5v6.5h-.38a.34.34,0,0,1-.37-.28l-.14-1.29c-.28.27-.55.51-.82.73a5.08,5.08,0,0,1-.85.54,4.64,4.64,0,0,1-1,.34,4.93,4.93,0,0,1-1.12.12,3.41,3.41,0,0,1-1-.15,2.59,2.59,0,0,1-.85-.46,2.31,2.31,0,0,1-.6-.8,2.74,2.74,0,0,1-.23-1.17,2.07,2.07,0,0,1,.36-1.17,3,3,0,0,1,1.13-.94,7.55,7.55,0,0,1,2-.64,16.69,16.69,0,0,1,2.91-.28V72.24a3.33,3.33,0,0,0-.6-2.13,2.15,2.15,0,0,0-1.77-.74,3.24,3.24,0,0,0-1.23.2,4,4,0,0,0-.85.44,5.75,5.75,0,0,0-.58.44.62.62,0,0,1-.37.2.35.35,0,0,1-.18-.05.77.77,0,0,1-.12-.13Zm5.87,3.74a19.68,19.68,0,0,0-2.46.22,7.33,7.33,0,0,0-1.69.48,2.59,2.59,0,0,0-1,.72,1.51,1.51,0,0,0-.32.94,2.08,2.08,0,0,0,.17.87A1.7,1.7,0,0,0,77,78.1a2.67,2.67,0,0,0,.75.11,3.9,3.9,0,0,0,1.06-.13,3.82,3.82,0,0,0,.91-.35,4.46,4.46,0,0,0,.77-.54c.24-.2.48-.43.72-.67Z" transform="translate(0.1 0)" style="fill:#fff"/><path d="M86.27,70.51a5.46,5.46,0,0,1,1.59-1.38,4,4,0,0,1,2-.52,3.61,3.61,0,0,1,1.45.26,2.56,2.56,0,0,1,1,.75A3.4,3.4,0,0,1,93,70.8a5.35,5.35,0,0,1,.21,1.56v6.38h-1V72.36a3.43,3.43,0,0,0-.64-2.2,2.37,2.37,0,0,0-2-.79,3.58,3.58,0,0,0-1.82.49,5.13,5.13,0,0,0-1.5,1.38v7.5h-1v-10h.54a.27.27,0,0,1,.29.25Z" transform="translate(0.1 0)" style="fill:#fff"/><path d="M103.08,70.1l-.09.08a.17.17,0,0,1-.13,0,.57.57,0,0,1-.27-.14,2.47,2.47,0,0,0-.46-.29,3.55,3.55,0,0,0-.72-.3,3.7,3.7,0,0,0-1.06-.13,3.66,3.66,0,0,0-1.53.3,3.24,3.24,0,0,0-1.13.88A3.73,3.73,0,0,0,97,71.92a6.44,6.44,0,0,0-.24,1.83A6.2,6.2,0,0,0,97,75.61,3.92,3.92,0,0,0,97.7,77a3.1,3.1,0,0,0,1.09.85,3.51,3.51,0,0,0,1.43.29,3.83,3.83,0,0,0,1.21-.17,4.67,4.67,0,0,0,.8-.37,4.1,4.1,0,0,0,.49-.37A.49.49,0,0,1,103,77a.26.26,0,0,1,.2.1l.26.33a3.18,3.18,0,0,1-.59.56,4,4,0,0,1-.79.45,5.28,5.28,0,0,1-.95.29,5.49,5.49,0,0,1-1.08.11,4.26,4.26,0,0,1-1.74-.35,3.61,3.61,0,0,1-1.35-1,4.63,4.63,0,0,1-.89-1.61,6.83,6.83,0,0,1-.31-2.16,6.9,6.9,0,0,1,.3-2.09A4.52,4.52,0,0,1,97,70,3.93,3.93,0,0,1,98.38,69a4.67,4.67,0,0,1,1.92-.37,4.4,4.4,0,0,1,1.72.31,4,4,0,0,1,1.31.84Z" transform="translate(0.1 0)" style="fill:#fff"/><path d="M106.79,70.45a5.56,5.56,0,0,1,1.58-1.34,3.92,3.92,0,0,1,2-.5,3.64,3.64,0,0,1,1.45.26,2.63,2.63,0,0,1,1,.75,3.4,3.4,0,0,1,.62,1.18,5.35,5.35,0,0,1,.21,1.56v6.38h-1V72.36a3.43,3.43,0,0,0-.65-2.2,2.33,2.33,0,0,0-1.95-.79,3.55,3.55,0,0,0-1.82.49,5.16,5.16,0,0,0-1.51,1.38v7.5h-1V64.16h1Z" transform="translate(0.1 0)" style="fill:#fff"/><path d="M117.2,73.36v.19a6.58,6.58,0,0,0,.26,2A4,4,0,0,0,118.2,77a3.2,3.2,0,0,0,1.16.87,3.92,3.92,0,0,0,1.52.29,4.58,4.58,0,0,0,1.31-.17,4.86,4.86,0,0,0,.93-.37,5.77,5.77,0,0,0,.59-.37A.7.7,0,0,1,124,77a.23.23,0,0,1,.2.1l.26.33a2.92,2.92,0,0,1-.63.56,4.61,4.61,0,0,1-.89.44,6.32,6.32,0,0,1-1,.3,6,6,0,0,1-1.12.11,4.67,4.67,0,0,1-1.86-.36,3.89,3.89,0,0,1-1.44-1,4.92,4.92,0,0,1-.93-1.67,7.12,7.12,0,0,1-.33-2.26,6.23,6.23,0,0,1,.31-2,4.54,4.54,0,0,1,.88-1.57,4.07,4.07,0,0,1,1.42-1,4.55,4.55,0,0,1,1.89-.37,4,4,0,0,1,1.57.29,3.45,3.45,0,0,1,1.25.84,4.17,4.17,0,0,1,.84,1.37,5.35,5.35,0,0,1,.3,1.87.56.56,0,0,1-.06.3.23.23,0,0,1-.2.08Zm6.65-.62a4.25,4.25,0,0,0-.22-1.43,3,3,0,0,0-.64-1.08,2.7,2.7,0,0,0-1-.68,3.35,3.35,0,0,0-1.25-.23,3.77,3.77,0,0,0-1.38.24,3,3,0,0,0-1.06.69,3.56,3.56,0,0,0-.71,1.08,5,5,0,0,0-.36,1.41Z" transform="translate(0.1 0)" style="fill:#fff"/><path d="M132.79,70a.25.25,0,0,1-.23.14.49.49,0,0,1-.28-.13c-.11-.08-.26-.17-.45-.28a5,5,0,0,0-.71-.28,3.76,3.76,0,0,0-1-.12,3.12,3.12,0,0,0-1,.15,2.41,2.41,0,0,0-.76.42,1.75,1.75,0,0,0-.49.6,1.73,1.73,0,0,0-.17.73,1.23,1.23,0,0,0,.24.78,1.94,1.94,0,0,0,.63.53,4,4,0,0,0,.88.38l1,.33c.35.1.69.22,1,.35a3.64,3.64,0,0,1,.89.49,2.36,2.36,0,0,1,.62.71,2,2,0,0,1,.24,1A3,3,0,0,1,133,77a2.76,2.76,0,0,1-.67,1,3.41,3.41,0,0,1-1.1.65,4.31,4.31,0,0,1-1.49.24,4.38,4.38,0,0,1-1.82-.34,4.94,4.94,0,0,1-1.36-.87l.22-.35a.43.43,0,0,1,.11-.12.48.48,0,0,1,.18,0,.54.54,0,0,1,.31.16,3.28,3.28,0,0,0,.5.35,4.71,4.71,0,0,0,.77.35,3.61,3.61,0,0,0,1.13.16,3.15,3.15,0,0,0,1.11-.18,2.07,2.07,0,0,0,1.29-1.18,2.27,2.27,0,0,0,.16-.86,1.38,1.38,0,0,0-.24-.83,2,2,0,0,0-.63-.56,4.27,4.27,0,0,0-.89-.39l-1-.32-1-.35a3.64,3.64,0,0,1-.89-.49,2.22,2.22,0,0,1-.63-.7,2.05,2.05,0,0,1-.24-1,2.45,2.45,0,0,1,.23-1,2.39,2.39,0,0,1,.66-.86,3.05,3.05,0,0,1,1-.59,4,4,0,0,1,1.38-.22,4.59,4.59,0,0,1,1.62.26,3.68,3.68,0,0,1,1.28.8Z" transform="translate(0.1 0)" style="fill:#fff"/><path d="M138.56,78.9a2.14,2.14,0,0,1-1.58-.56,2.37,2.37,0,0,1-.57-1.74V69.79H135a.24.24,0,0,1-.18-.06.21.21,0,0,1-.07-.17v-.37l1.7-.12.24-3.57a.3.3,0,0,1,.08-.16.21.21,0,0,1,.17-.07h.45v3.81h3.15v.71h-3.15v6.76a2.12,2.12,0,0,0,.11.71,1.25,1.25,0,0,0,.29.49,1.18,1.18,0,0,0,.44.28,1.53,1.53,0,0,0,.54.09,1.67,1.67,0,0,0,.62-.11,3.14,3.14,0,0,0,.45-.23,2.27,2.27,0,0,0,.31-.23.32.32,0,0,1,.19-.1.21.21,0,0,1,.16.1l.26.42a2.75,2.75,0,0,1-1,.67A3,3,0,0,1,138.56,78.9Z" transform="translate(0.1 0)" style="fill:#fff"/><path d="M143,73.36v.19a6.56,6.56,0,0,0,.27,2A4,4,0,0,0,144,77a3.2,3.2,0,0,0,1.16.87,3.89,3.89,0,0,0,1.52.29,4.63,4.63,0,0,0,1.31-.17,4.75,4.75,0,0,0,.92-.37,6.08,6.08,0,0,0,.6-.37.7.7,0,0,1,.32-.17.25.25,0,0,1,.2.1l.26.33a2.92,2.92,0,0,1-.63.56,4.61,4.61,0,0,1-.89.44,6.32,6.32,0,0,1-1,.3,6,6,0,0,1-1.12.11,4.67,4.67,0,0,1-1.86-.36,3.89,3.89,0,0,1-1.44-1,4.92,4.92,0,0,1-.93-1.67,7.12,7.12,0,0,1-.33-2.26,6.23,6.23,0,0,1,.31-2,4.54,4.54,0,0,1,.88-1.57,4,4,0,0,1,1.41-1,4.6,4.6,0,0,1,1.9-.37,4.06,4.06,0,0,1,1.57.29,3.45,3.45,0,0,1,1.25.84,4.17,4.17,0,0,1,.84,1.37,5.35,5.35,0,0,1,.3,1.87.56.56,0,0,1-.06.3.23.23,0,0,1-.2.08Zm6.66-.62a4.25,4.25,0,0,0-.23-1.43,3,3,0,0,0-.63-1.08,2.79,2.79,0,0,0-1-.68,3.35,3.35,0,0,0-1.25-.23,3.77,3.77,0,0,0-1.38.24,3,3,0,0,0-1.06.69,3.38,3.38,0,0,0-.71,1.08,5.39,5.39,0,0,0-.37,1.41Z" transform="translate(0.1 0)" style="fill:#fff"/><path d="M154,71.17a5.82,5.82,0,0,1,.53-1.09,3.31,3.31,0,0,1,.68-.8,2.88,2.88,0,0,1,.86-.51,3,3,0,0,1,1.06-.18,3.15,3.15,0,0,1,.61.06,1.46,1.46,0,0,1,.53.2l-.08.66a.2.2,0,0,1-.19.16,2,2,0,0,1-.37-.07,2.27,2.27,0,0,0-.64-.07,3,3,0,0,0-1,.17,2.38,2.38,0,0,0-.8.53,3,3,0,0,0-.62.87,8.23,8.23,0,0,0-.49,1.18v6.46h-1v-10h.51a.33.33,0,0,1,.24.07.34.34,0,0,1,.09.24Z" transform="translate(0.1 0)" style="fill:#fff"/></svg>